<svg height="512" viewBox="0 0 38 60" width="512" xmlns="http://www.w3.org/2000/svg"><g id="Page-1" fill="none" fill-rule="evenodd"><g id="026---Potion" fill-rule="nonzero"><g id="Color" transform="translate(1 1)"><path id="Shape" d="m25.22 3.63-2.22 10.37h-10l-2.22-10.37c-.1901947-.88549085.0298254-1.80951108.5986759-2.51426438.5688504-.70475329 1.4256381-1.11479859 2.3313241-1.11573562h8.58c.905686.00093703 1.7624737.41098233 2.3313241 1.11573562.5688505.7047533.7888706 1.62877353.5986759 2.51426438z" fill="#e8edfc"/><path id="Shape" d="m22.29 0h-3c.905686.00093703 1.7624737.41098233 2.3313241 1.11573562.5688505.7047533.7888706 1.62877353.5986759 2.51426438l-2.22 10.37h3l2.22-10.37c.1901947-.88549085-.0298254-1.80951108-.5986759-2.51426438-.5688504-.70475329-1.4256381-1.11479859-2.3313241-1.11573562z" fill="#cad9fc"/><rect id="Rectangle-path" fill="#e8edfc" height="5" rx="2" width="14" x="11" y="14"/><path id="Shape" d="m23 14h-3c1.1032019.0032948 1.9967052.8967981 2 2v1c-.0032948 1.1032019-.8967981 1.9967052-2 2h3c1.1032019-.0032948 1.9967052-.8967981 2-2v-1c-.0032948-1.1032019-.8967981-1.9967052-2-2z" fill="#cad9fc"/><path id="Shape" d="m35.48 27h-34.96c.23593288-.3558501.54644364-.6561242.91-.88l11.57-7.12h10l11.57 7.12c.3635564.2238758.6740671.5241499.91.88z" fill="#a4c2f7"/><path id="Shape" d="m35.48 27h-4.52c-.2359329-.3558501-.5464436-.6561242-.91-.88l-11.57-7.12h4.52l11.57 7.12c.3635564.2238758.6740671.5241499.91.88z" fill="#7facfa"/><path id="Shape" d="m36 28.68v17.25c-.0005893.3659039-.0683807.7285877-.2 1.07h-35.6c-.13161933-.3414123-.19941069-.7040961-.2-1.07v-17.25c-.00284582-.6000445.17867165-1.1864856.52-1.68h34.96c.3413284.4935144.5228458 1.0799555.52 1.68z" fill="#e8edfc"/><path id="Shape" d="m35.48 27h-3c.3413284.4935144.5228458 1.0799555.52 1.68v17.25c-.0005893.3659039-.0683807.7285877-.2 1.07h3c.1316193-.3414123.1994107-.7040961.2-1.07v-17.25c.0028458-.6000445-.1786716-1.1864856-.52-1.68z" fill="#cad9fc"/><path id="Shape" d="m35.8 47c-.1104814.3024909-.2729196.5833736-.48.83l-7.72 9.44c-.3823364.4618081-.9504606.7293763-1.55.73h-16.1c-.5995394-.0006237-1.16766358-.2681919-1.55-.73l-7.72-9.44c-.20708044-.2466264-.36951859-.5275091-.48-.83z" fill="#a4c2f7"/><path id="Shape" d="m32.8 47c-.1104814.3024909-.2729196.5833736-.48.83l-7.72 9.44c-.3823364.4618081-.9504606.7293763-1.55.73h3c.5995394-.0006237 1.1676636-.2681919 1.55-.73l7.72-9.44c.2070804-.2466264.3695186-.5275091.48-.83z" fill="#7facfa"/></g><g id="Color_copy" fill="#fff" transform="translate(0 1)"><path id="Shape" d="m4.2 47c-.284-.742-.2.453-.2-18.32.00241695-1.043069.54309682-2.0109994 1.43-2.56l11.57-7.12c-1.1032019-.0032948-1.9967052-.8967981-2-2v-1c.0032948-1.1032019.8967981-1.9967052 2-2l-2.22-10.37c-.1901947-.88549085.0298254-1.80951108.5986759-2.51426438.5688504-.70475329 1.4256381-1.11479859 2.3313241-1.11573562h-3c-.905686.00093703-1.7624737.41098233-2.3313241 1.11573562-.5688505.7047533-.7888706 1.62877353-.5986759 2.51426438l2.22 10.37c-1.1032019.0032948-1.9967052.8967981-2 2v1c.0032948 1.1032019.8967981 1.9967052 2 2l-11.57 7.12c-.88690318.5490006-1.42758305 1.516931-1.43 2.56 0 18.773-.084 17.578.2 18.32.227.619-.206-.009 8.2 10.27.38233642.4618081.9504606.7293763 1.55.73h3c-.5995394-.0006237-1.1676636-.2681919-1.55-.73-8.406-10.279-7.973-9.651-8.2-10.27z"/></g><g id="Outline"><path id="Rectangle-path" d="m0 38.929h2v8h-2z" fill="#fff"/><g fill="#428dff"><circle id="Oval" cx="1" cy="42.929" r="1"/><path id="Shape" d="m36.1 26.27-9.984-6.144c.5667424-.5621874.8850543-1.3277202.884-2.126v-1c-.000988-1.1982994-.7149728-2.2810714-1.816-2.754l2.016-9.408c.2530566-1.18110213-.0411633-2.41330578-.8005339-3.35266524s-1.9025589-1.48526392-3.1104661-1.48533476h-8.578c-1.2079072.00007084-2.3510955.5459753-3.1104661 1.48533476s-1.0535905 2.17156311-.8005339 3.35266524l2.016 9.408c-1.1010272.4729286-1.815012 1.5557006-1.816 2.754v1c-.0002614.7987138.3191565 1.5643083.887 2.126l-9.987 6.144c-1.17810956.7319108-1.89612811 2.0190535-1.9 3.406v9.253c0 .5522847.44771525 1 1 1s1-.4477153 1-1v-9.253c.00483562-.2315256.05053802-.4603761.135-.676h33.73c.084462.2156239.1301644.4444744.135.676v17.253c0 .024-.005.047-.006.071h-33.988c0-.024-.006-.047-.006-.071 0-.5522847-.44771525-1-1-1s-1 .4477153-1 1c-.0002038.922706.31764786 1.8172819.9 2.533l7.725 9.438c.56928142.6976422 1.4225651 1.1016938 2.323 1.1h16.1c.9004349.0016938 1.7537186-.4023578 2.323-1.1l7.729-9.438c.5827143-.7155145.9006133-1.6102235.9-2.533v-17.253c-.0040628-1.3868966-.7220332-2.673953-1.9-3.406zm-22.1-10.27h10c.5522847 0 1 .4477153 1 1v1c0 .5522847-.4477153 1-1 1h-10c-.5522847 0-1-.4477153-1-1v-1c0-.5522847.4477153-1 1-1zm9.717 5 9.75 6h-28.934l9.75-6zm-10.562-18.257c.3791437-.47082955.9514927-.74412985 1.556-.743h8.578c.6040412-.00011559 1.1757768.27277255 1.5555759.74247295s.5269707 1.08589032.4004241 1.67652705l-2.054 9.581h-8.382l-2.054-9.581c-.1279827-.59042117.0191752-1.20701261.4-1.676zm14.671 54.89c-.1898921.2322359-.4740125.3669545-.774.367h-16.1c-.2999875-.0000455-.5841079-.1347641-.774-.367l-7.068-8.633h31.78z"/><path id="Shape" d="m7 33c.55228475 0 1-.4477153 1-1s-.44771525-1-1-1h-2c-.55228475 0-1 .4477153-1 1s.44771525 1 1 1z"/><path id="Shape" d="m25 33c.5522847 0 1-.4477153 1-1s-.4477153-1-1-1h-14c-.5522847 0-1 .4477153-1 1s.4477153 1 1 1z"/></g></g></g></g></svg>