<svg height="512" viewBox="0 0 36 58" width="512" xmlns="http://www.w3.org/2000/svg"><g id="Page-1" fill="none" fill-rule="evenodd"><g id="026---Potion" fill-rule="nonzero"><path id="Shape" d="m35.48 27c-.2359329-.3558501-.5464436-.6561242-.91-.88l-11.57-7.12c1.1032019-.0032948 1.9967052-.8967981 2-2v-1c-.0032948-1.1032019-.8967981-1.9967052-2-2l2.22-10.37c.1901947-.88549085-.0298254-1.80951108-.5986759-2.51426438-.5688504-.70475329-1.4256381-1.11479859-2.3313241-1.11573562h-8.58c-.905686.00093703-1.7624737.41098233-2.3313241 1.11573562-.5688505.7047533-.7888706 1.62877353-.5986759 2.51426438l2.22 10.37c-1.1032019.0032948-1.9967052.8967981-2 2v1c.0032948 1.1032019.8967981 1.9967052 2 2l-11.57 7.12c-.88293182.552788-1.42227567 1.5183266-1.43 2.56v17.25c.00058931.3659039.06838067.7285877.2 1.07.11048141.3024909.27291956.5833736.48.83l7.72 9.44c.38233642.4618081.9504606.7293763 1.55.73h16.1c.5995394-.0006237 1.1676636-.2681919 1.55-.73l7.72-9.44c.2070804-.2466264.3695186-.5275091.48-.83.1316193-.3414123.1994107-.7040961.2-1.07v-17.25c.0028458-.6000445-.1786716-1.1864856-.52-1.68z" fill="#df4d60"/><path id="Shape" d="m25.22 3.63-2.22 10.37h-10l-2.22-10.37c-.1901947-.88549085.0298254-1.80951108.5986759-2.51426438.5688504-.70475329 1.4256381-1.11479859 2.3313241-1.11573562h8.58c.905686.00093703 1.7624737.41098233 2.3313241 1.11573562.5688505.7047533.7888706 1.62877353.5986759 2.51426438z" fill="#7d6599"/><rect id="Rectangle-path" fill="#f3d55b" height="5" rx="2" width="14" x="11" y="14"/><path id="Shape" d="m35.8 47c-.1104814.3024909-.2729196.5833736-.48.83l-7.72 9.44c-.3823364.4618081-.9504606.7293763-1.55.73h-16.1c-.5995394-.0006237-1.16766358-.2681919-1.55-.73l-7.72-9.44c-.20708044-.2466264-.36951859-.5275091-.48-.83z" fill="#802d40"/><path id="Shape" d="m35.48 27h-34.96c.23593288-.3558501.54644364-.6561242.91-.88l11.57-7.12h10l11.57 7.12c.3635564.2238758.6740671.5241499.91.88z" fill="#ff5364"/><g fill="#fff"><path id="Shape" d="m6 32h-2c-.55228475 0-1-.4477153-1-1s.44771525-1 1-1h2c.55228475 0 1 .4477153 1 1s-.44771525 1-1 1z"/><path id="Shape" d="m24 32h-14c-.55228475 0-1-.4477153-1-1s.44771525-1 1-1h14c.5522847 0 1 .4477153 1 1s-.4477153 1-1 1z"/></g></g></g></svg>